%TF.GenerationSoftware,KiCad,Pcbnew,9.0.7*%
%TF.CreationDate,2026-02-03T13:50:29+02:00*%
%TF.ProjectId,TempMe_pcb,54656d70-4d65-45f7-9063-622e6b696361,0*%
%TF.SameCoordinates,Original*%
%TF.FileFunction,Copper,L2,Bot*%
%TF.FilePolarity,Positive*%
%FSLAX46Y46*%
G04 Gerber Fmt 4.6, Leading zero omitted, Abs format (unit mm)*
G04 Created by KiCad (PCBNEW 9.0.7) date 2026-02-03 13:50:29*
%MOMM*%
%LPD*%
G01*
G04 APERTURE LIST*
%TA.AperFunction,ViaPad*%
%ADD10C,0.600000*%
%TD*%
G04 APERTURE END LIST*
D10*
%TO.N,VCC*%
X124000000Y-99000000D03*
%TD*%
%TA.AperFunction,Conductor*%
%TO.N,Earth*%
G36*
X167943039Y-88019685D02*
G01*
X167988794Y-88072489D01*
X168000000Y-88124000D01*
X168000000Y-124876000D01*
X167980315Y-124943039D01*
X167927511Y-124988794D01*
X167876000Y-125000000D01*
X115124000Y-125000000D01*
X115056961Y-124980315D01*
X115011206Y-124927511D01*
X115000000Y-124876000D01*
X115000000Y-98921153D01*
X123199500Y-98921153D01*
X123199500Y-99078846D01*
X123230261Y-99233489D01*
X123230264Y-99233501D01*
X123290602Y-99379172D01*
X123290609Y-99379185D01*
X123378210Y-99510288D01*
X123378213Y-99510292D01*
X123489707Y-99621786D01*
X123489711Y-99621789D01*
X123620814Y-99709390D01*
X123620827Y-99709397D01*
X123766498Y-99769735D01*
X123766503Y-99769737D01*
X123921153Y-99800499D01*
X123921156Y-99800500D01*
X123921158Y-99800500D01*
X124078844Y-99800500D01*
X124078845Y-99800499D01*
X124233497Y-99769737D01*
X124379179Y-99709394D01*
X124510289Y-99621789D01*
X124621789Y-99510289D01*
X124709394Y-99379179D01*
X124769737Y-99233497D01*
X124800500Y-99078842D01*
X124800500Y-98921158D01*
X124800500Y-98921155D01*
X124800499Y-98921153D01*
X124769738Y-98766510D01*
X124769737Y-98766503D01*
X124769735Y-98766498D01*
X124709397Y-98620827D01*
X124709390Y-98620814D01*
X124621789Y-98489711D01*
X124621786Y-98489707D01*
X124510292Y-98378213D01*
X124510288Y-98378210D01*
X124379185Y-98290609D01*
X124379172Y-98290602D01*
X124233501Y-98230264D01*
X124233489Y-98230261D01*
X124078845Y-98199500D01*
X124078842Y-98199500D01*
X123921158Y-98199500D01*
X123921155Y-98199500D01*
X123766510Y-98230261D01*
X123766498Y-98230264D01*
X123620827Y-98290602D01*
X123620814Y-98290609D01*
X123489711Y-98378210D01*
X123489707Y-98378213D01*
X123378213Y-98489707D01*
X123378210Y-98489711D01*
X123290609Y-98620814D01*
X123290602Y-98620827D01*
X123230264Y-98766498D01*
X123230261Y-98766510D01*
X123199500Y-98921153D01*
X115000000Y-98921153D01*
X115000000Y-88124000D01*
X115019685Y-88056961D01*
X115072489Y-88011206D01*
X115124000Y-88000000D01*
X167876000Y-88000000D01*
X167943039Y-88019685D01*
G37*
%TD.AperFunction*%
%TD*%
M02*
