%TF.GenerationSoftware,KiCad,Pcbnew,9.0.7*%
%TF.CreationDate,2026-02-03T13:50:29+02:00*%
%TF.ProjectId,TempMe_pcb,54656d70-4d65-45f7-9063-622e6b696361,0*%
%TF.SameCoordinates,Original*%
%TF.FileFunction,Legend,Top*%
%TF.FilePolarity,Positive*%
%FSLAX46Y46*%
G04 Gerber Fmt 4.6, Leading zero omitted, Abs format (unit mm)*
G04 Created by KiCad (PCBNEW 9.0.7) date 2026-02-03 13:50:29*
%MOMM*%
%LPD*%
G01*
G04 APERTURE LIST*
%ADD10C,0.150000*%
%ADD11C,0.120000*%
G04 APERTURE END LIST*
D10*
X140214285Y-106551009D02*
X140357142Y-106598628D01*
X140357142Y-106598628D02*
X140404761Y-106646247D01*
X140404761Y-106646247D02*
X140452380Y-106741485D01*
X140452380Y-106741485D02*
X140452380Y-106884342D01*
X140452380Y-106884342D02*
X140404761Y-106979580D01*
X140404761Y-106979580D02*
X140357142Y-107027200D01*
X140357142Y-107027200D02*
X140261904Y-107074819D01*
X140261904Y-107074819D02*
X139880952Y-107074819D01*
X139880952Y-107074819D02*
X139880952Y-106074819D01*
X139880952Y-106074819D02*
X140214285Y-106074819D01*
X140214285Y-106074819D02*
X140309523Y-106122438D01*
X140309523Y-106122438D02*
X140357142Y-106170057D01*
X140357142Y-106170057D02*
X140404761Y-106265295D01*
X140404761Y-106265295D02*
X140404761Y-106360533D01*
X140404761Y-106360533D02*
X140357142Y-106455771D01*
X140357142Y-106455771D02*
X140309523Y-106503390D01*
X140309523Y-106503390D02*
X140214285Y-106551009D01*
X140214285Y-106551009D02*
X139880952Y-106551009D01*
X140738095Y-106074819D02*
X141309523Y-106074819D01*
X141023809Y-107074819D02*
X141023809Y-106074819D01*
X142166666Y-107074819D02*
X141595238Y-107074819D01*
X141880952Y-107074819D02*
X141880952Y-106074819D01*
X141880952Y-106074819D02*
X141785714Y-106217676D01*
X141785714Y-106217676D02*
X141690476Y-106312914D01*
X141690476Y-106312914D02*
X141595238Y-106360533D01*
X123658333Y-118024819D02*
X123325000Y-117548628D01*
X123086905Y-118024819D02*
X123086905Y-117024819D01*
X123086905Y-117024819D02*
X123467857Y-117024819D01*
X123467857Y-117024819D02*
X123563095Y-117072438D01*
X123563095Y-117072438D02*
X123610714Y-117120057D01*
X123610714Y-117120057D02*
X123658333Y-117215295D01*
X123658333Y-117215295D02*
X123658333Y-117358152D01*
X123658333Y-117358152D02*
X123610714Y-117453390D01*
X123610714Y-117453390D02*
X123563095Y-117501009D01*
X123563095Y-117501009D02*
X123467857Y-117548628D01*
X123467857Y-117548628D02*
X123086905Y-117548628D01*
X124610714Y-118024819D02*
X124039286Y-118024819D01*
X124325000Y-118024819D02*
X124325000Y-117024819D01*
X124325000Y-117024819D02*
X124229762Y-117167676D01*
X124229762Y-117167676D02*
X124134524Y-117262914D01*
X124134524Y-117262914D02*
X124039286Y-117310533D01*
X158161905Y-121284819D02*
X158161905Y-120284819D01*
X158161905Y-120284819D02*
X158400000Y-120284819D01*
X158400000Y-120284819D02*
X158542857Y-120332438D01*
X158542857Y-120332438D02*
X158638095Y-120427676D01*
X158638095Y-120427676D02*
X158685714Y-120522914D01*
X158685714Y-120522914D02*
X158733333Y-120713390D01*
X158733333Y-120713390D02*
X158733333Y-120856247D01*
X158733333Y-120856247D02*
X158685714Y-121046723D01*
X158685714Y-121046723D02*
X158638095Y-121141961D01*
X158638095Y-121141961D02*
X158542857Y-121237200D01*
X158542857Y-121237200D02*
X158400000Y-121284819D01*
X158400000Y-121284819D02*
X158161905Y-121284819D01*
X159685714Y-121284819D02*
X159114286Y-121284819D01*
X159400000Y-121284819D02*
X159400000Y-120284819D01*
X159400000Y-120284819D02*
X159304762Y-120427676D01*
X159304762Y-120427676D02*
X159209524Y-120522914D01*
X159209524Y-120522914D02*
X159114286Y-120570533D01*
D11*
%TO.C,BT1*%
X151692000Y-102610000D02*
G75*
G02*
X148845371Y-107111789I-10692020J3610012D01*
G01*
X148845371Y-90888211D02*
G75*
G02*
X151692000Y-95390000I-7845371J-8111789D01*
G01*
X133154629Y-107111789D02*
G75*
G02*
X130308000Y-102610000I7845366J8111785D01*
G01*
X130308000Y-95390000D02*
G75*
G02*
X133154628Y-90888210I10692020J-3610010D01*
G01*
X155310000Y-102610000D02*
X151692000Y-102610000D01*
X155310000Y-100900000D02*
X155310000Y-102610000D01*
X155310000Y-97100000D02*
X155310000Y-95390000D01*
X151692000Y-95390000D02*
X155310000Y-95390000D01*
X148847300Y-107110000D02*
X144860000Y-107110000D01*
X142660000Y-104910000D02*
X144860000Y-107110000D01*
X142660000Y-104910000D02*
X139340000Y-104910000D01*
X139340000Y-104910000D02*
X137140000Y-107110000D01*
X137140000Y-107110000D02*
X133152700Y-107110000D01*
X133152700Y-90890000D02*
X148847300Y-90890000D01*
X130308000Y-102610000D02*
X126690000Y-102610000D01*
X126690000Y-100900000D02*
X126690000Y-102610000D01*
X126690000Y-97100000D02*
X126690000Y-95390000D01*
X126690000Y-95390000D02*
X130308000Y-95390000D01*
%TO.C,R1*%
X123587742Y-118477500D02*
X124062258Y-118477500D01*
X123587742Y-119522500D02*
X124062258Y-119522500D01*
%TO.C,D1*%
X157300000Y-120135000D02*
X161185000Y-120135000D01*
X161185000Y-117865000D02*
X157300000Y-117865000D01*
X161185000Y-120135000D02*
X161185000Y-117865000D01*
%TD*%
M02*
